<svg width="20" height="23" viewBox="0 0 20 21" fill="none" xmlns="http://www.w3.org/2000/svg">
<path d="M19 8.5H1M14 0.5V4.5M6 0.5V4.5M5.8 20.5H14.2C15.8802 20.5 16.7202 20.5 17.362 20.173C17.9265 19.8854 18.3854 19.4265 18.673 18.862C19 18.2202 19 17.3802 19 15.7V7.3C19 5.61984 19 4.77976 18.673 4.13803C18.3854 3.57354 17.9265 3.1146 17.362 2.82698C16.7202 2.5 15.8802 2.5 14.2 2.5H5.8C4.11984 2.5 3.27976 2.5 2.63803 2.82698C2.07354 3.1146 1.6146 3.57354 1.32698 4.13803C1 4.77976 1 5.61984 1 7.3V15.7C1 17.3802 1 18.2202 1.32698 18.862C1.6146 19.4265 2.07354 19.8854 2.63803 20.173C3.27976 20.5 4.11984 20.5 5.8 20.5Z" stroke="white" stroke-linecap="round" stroke-linejoin="round"/>
</svg>
