<svg width="14" height="14" viewBox="0 0 14 14" fill="none" xmlns="http://www.w3.org/2000/svg">
<path d="M10.4088 3.2V0.8H7.60877C6.93377 0.8 6.40877 1.35 6.40877 2V9.2C6.40877 9.875 6.93377 10.4 7.60877 10.4H12.4088C13.0588 10.4 13.6088 9.875 13.6088 9.2V4H11.2088C10.7588 4 10.4088 3.65 10.4088 3.2ZM11.2088 0.8V3.2H13.6088L11.2088 0.8ZM5.60877 9.6V4H2.00877C1.33377 4 0.808773 4.55 0.808773 5.2V12.4C0.808773 13.075 1.33377 13.6 2.00877 13.6H6.80877C7.45877 13.6 8.00877 13.075 8.00877 12.4V11.2H7.20877C6.30877 11.2 5.60877 10.5 5.60877 9.6Z" fill="white"/>
</svg>
