<svg width="19" height="15" viewBox="0 0 19 15" fill="none" xmlns="http://www.w3.org/2000/svg">
<path d="M1 3.33325L7.8041 8.09612C8.35508 8.4818 8.63056 8.67465 8.93022 8.74934C9.19491 8.81532 9.47175 8.81532 9.73645 8.74934C10.0361 8.67465 10.3116 8.4818 10.8626 8.09612L17.6667 3.33325M5 14.1666H13.6667C15.0668 14.1666 15.7669 14.1666 16.3016 13.8941C16.772 13.6544 17.1545 13.272 17.3942 12.8016C17.6667 12.2668 17.6667 11.5667 17.6667 10.1666V4.83325C17.6667 3.43312 17.6667 2.73306 17.3942 2.19828C17.1545 1.72787 16.772 1.34542 16.3016 1.10574C15.7669 0.833252 15.0668 0.833252 13.6667 0.833252H5C3.59987 0.833252 2.8998 0.833252 2.36502 1.10574C1.89462 1.34542 1.51217 1.72787 1.27248 2.19828C1 2.73306 1 3.43312 1 4.83325V10.1666C1 11.5667 1 12.2668 1.27248 12.8016C1.51217 13.272 1.89462 13.6544 2.36502 13.8941C2.8998 14.1666 3.59987 14.1666 5 14.1666Z" stroke="white" stroke-width="1.2" stroke-linecap="round" stroke-linejoin="round"/>
</svg>
