<svg width="20" height="21" viewBox="0 0 20 21" fill="none" xmlns="http://www.w3.org/2000/svg">
<path opacity="0.12" d="M7.5 10.4999C7.5 11.8807 8.61929 12.9999 10 12.9999C10.6904 12.9999 11.3154 12.7201 11.7678 12.2677L8.23223 8.73218C7.77982 9.18459 7.5 9.80959 7.5 10.4999Z" fill="black"/>
<path d="M8.95196 4.7436C9.29064 4.69353 9.64002 4.66667 9.99986 4.66667C14.254 4.66667 17.0456 8.4207 17.9834 9.90569C18.0969 10.0854 18.1537 10.1753 18.1855 10.3139C18.2093 10.418 18.2093 10.5822 18.1854 10.6863C18.1536 10.8249 18.0965 10.9154 17.9822 11.0963C17.7323 11.4918 17.3513 12.0476 16.8466 12.6504M5.60311 6.09586C3.80139 7.31808 2.57822 9.01615 2.0171 9.9044C1.90308 10.0849 1.84607 10.1751 1.81429 10.3137C1.79043 10.4178 1.79042 10.582 1.81427 10.6861C1.84604 10.8247 1.90279 10.9146 2.01629 11.0943C2.95413 12.5793 5.74569 16.3333 9.99986 16.3333C11.7152 16.3333 13.1927 15.723 14.4069 14.8972M2.49986 3L17.4999 18M8.23209 8.73223C7.77968 9.18464 7.49986 9.80964 7.49986 10.5C7.49986 11.8807 8.61915 13 9.99986 13C10.6902 13 11.3152 12.7202 11.7676 12.2678" stroke="white" stroke-width="1.2" stroke-linecap="round" stroke-linejoin="round"/>
</svg>
