<svg width="72" height="30" viewBox="0 0 72 30" fill="none" xmlns="http://www.w3.org/2000/svg">
<rect x="42.5" y="2" width="25" height="10" rx="5" stroke="url(#paint0_angular_199_2262)" stroke-width="3"/>
<path d="M4.302 29.5H1.386V16.18H6.534C9.774 16.18 11.61 17.746 11.61 20.5C11.61 22.228 10.872 23.452 9.396 24.208L11.736 29.5H8.55L6.552 24.838H4.302V29.5ZM4.302 18.772V22.282H6.516C7.794 22.282 8.532 21.634 8.532 20.5C8.532 19.384 7.83 18.772 6.534 18.772H4.302ZM26.8106 22.822C26.8106 26.89 24.1286 29.716 20.2586 29.716C16.4066 29.716 13.7606 26.908 13.7606 22.84C13.7606 18.772 16.4246 15.946 20.2766 15.946C24.1466 15.946 26.8106 18.754 26.8106 22.822ZM23.7326 22.822C23.7326 20.284 22.4366 18.754 20.2946 18.754C18.1346 18.754 16.8386 20.284 16.8386 22.822C16.8386 25.378 18.1346 26.908 20.2946 26.908C22.4366 26.908 23.7326 25.342 23.7326 22.822ZM29.4723 24.496V16.18H32.3883V24.298C32.3883 25.972 33.3063 26.89 34.9443 26.89C36.6003 26.89 37.5363 25.936 37.5363 24.298V16.18H40.4523V24.496C40.4523 27.664 38.2923 29.716 34.9443 29.716C31.6143 29.716 29.4723 27.682 29.4723 24.496ZM46.7326 29.5H43.8526V16.18H46.7326L52.3486 24.658V16.18H55.2286V29.5H52.3486L46.7326 21.04V29.5ZM63.943 29.5H58.723V16.18H63.763C67.669 16.18 70.387 18.916 70.387 22.876C70.387 26.764 67.741 29.5 63.943 29.5ZM63.475 18.88H61.639V26.8H63.655C65.959 26.8 67.309 25.342 67.309 22.876C67.309 20.356 65.887 18.88 63.475 18.88Z" fill="white"/>
<path d="M8.982 8.298H4.302V13.5H1.386V0.18H9.864V2.88H4.302V5.67H8.982V8.298ZM12.4926 8.496V0.18H15.4086V8.298C15.4086 9.972 16.3266 10.89 17.9646 10.89C19.6206 10.89 20.5566 9.936 20.5566 8.298V0.18H23.4726V8.496C23.4726 11.664 21.3126 13.716 17.9646 13.716C14.6346 13.716 12.4926 11.682 12.4926 8.496ZM29.7529 13.5H26.8729V0.18H29.7529L35.3689 8.658V0.18H38.2489V13.5H35.3689L29.7529 5.04V13.5Z" fill="white"/>
<defs>
<radialGradient id="paint0_angular_199_2262" cx="0" cy="0" r="1" gradientUnits="userSpaceOnUse" gradientTransform="translate(55 7) rotate(178.274) scale(16.6001 33.2481)">
<stop stop-color="#D4CAFF"/>
<stop offset="0.505" stop-color="#AB97FF"/>
<stop offset="1" stop-color="#4833A3"/>
</radialGradient>
</defs>
</svg>
