<svg width="22" height="21" viewBox="0 0 22 21" fill="none" xmlns="http://www.w3.org/2000/svg">
<path d="M3.00002 20.3174C3.6026 20.5 4.41649 20.5 5.8 20.5H16.2C17.5835 20.5 18.3974 20.5 19 20.3174M3.00002 20.3174C2.87082 20.2783 2.75133 20.2308 2.63803 20.173C2.07354 19.8854 1.6146 19.4265 1.32698 18.862C1 18.2202 1 17.3802 1 15.7V5.3C1 3.61984 1 2.77976 1.32698 2.13803C1.6146 1.57354 2.07354 1.1146 2.63803 0.82698C3.27976 0.5 4.11984 0.5 5.8 0.5H16.2C17.8802 0.5 18.7202 0.5 19.362 0.82698C19.9265 1.1146 20.3854 1.57354 20.673 2.13803C21 2.77976 21 3.61984 21 5.3V15.7C21 17.3802 21 18.2202 20.673 18.862C20.3854 19.4265 19.9265 19.8854 19.362 20.173C19.2487 20.2308 19.1292 20.2783 19 20.3174M3.00002 20.3174C3.00035 19.5081 3.00521 19.0799 3.07686 18.7196C3.39249 17.1329 4.63288 15.8925 6.21964 15.5769C6.60603 15.5 7.07069 15.5 8 15.5H14C14.9293 15.5 15.394 15.5 15.7804 15.5769C17.3671 15.8925 18.6075 17.1329 18.9231 18.7196C18.9948 19.0799 18.9996 19.5081 19 20.3174M15 8C15 10.2091 13.2091 12 11 12C8.79086 12 7 10.2091 7 8C7 5.79086 8.79086 4 11 4C13.2091 4 15 5.79086 15 8Z" stroke="white" stroke-linecap="round" stroke-linejoin="round"/>
</svg>
